<?xml version="1.0" standalone="no"?>
<!DOCTYPE svg PUBLIC "-//W3C//DTD SVG 20010904//EN"
 "http://www.w3.org/TR/2001/REC-SVG-20010904/DTD/svg10.dtd">
<svg version="1.0" xmlns="http://www.w3.org/2000/svg"
 width="225.000000pt" height="225.000000pt" viewBox="0 0 225.000000 225.000000"
 preserveAspectRatio="xMidYMid meet">
<metadata>
Created by potrace 1.10, written by Peter Selinger 2001-2011
</metadata>
<g transform="translate(0.000000,225.000000) scale(0.100000,-0.100000)"
fill="#000000" stroke="none">
<path d="M970 1848 c-38 -11 -80 -44 -80 -64 0 -7 12 -27 27 -44 l27 -32 -20
-37 -19 -36 -87 -5 c-73 -4 -91 -9 -109 -27 -22 -21 -22 -23 -6 -65 22 -56 22
-182 1 -233 -14 -34 -14 -39 1 -62 15 -22 15 -27 1 -48 -19 -29 -20 -57 -4
-73 19 -19 3 -24 -46 -11 -49 12 -55 22 -30 50 23 25 12 60 -25 82 -21 12 -34
30 -42 60 -15 57 -25 67 -69 67 -64 0 -81 -23 -91 -121 -12 -131 -12 -135 23
-174 30 -34 31 -38 21 -81 -9 -39 -8 -48 9 -69 11 -14 35 -27 56 -31 20 -4
120 -36 222 -71 371 -128 413 -131 640 -38 156 64 329 125 354 125 12 0 32 7
45 16 21 15 23 22 18 67 -6 46 -4 53 24 85 31 35 31 35 24 121 -11 144 -26
171 -98 171 -41 0 -51 -11 -66 -67 -9 -31 -20 -47 -41 -58 -38 -19 -49 -59
-25 -85 10 -11 16 -22 14 -24 -8 -8 -186 -78 -249 -98 -170 -53 -277 -59 -405
-22 -50 14 -103 29 -120 34 -49 13 -83 28 -90 40 -4 6 -1 11 6 9 79 -10 131
19 131 74 0 34 2 36 42 42 22 4 54 14 69 22 37 19 42 12 23 -26 -37 -70 -10
-101 87 -101 60 0 68 3 83 25 10 16 14 34 9 53 l-6 29 53 -2 c29 -1 58 -3 65
-4 6 0 11 -17 10 -37 -1 -52 30 -73 109 -74 98 0 122 45 59 113 -21 22 -32 43
-28 50 4 7 17 27 30 46 20 29 23 47 23 120 0 137 -43 193 -158 207 -67 8 -78
15 -87 56 -6 24 -3 33 15 45 33 23 24 71 -19 100 -68 46 -131 19 -147 -63 -3
-19 -10 -34 -14 -34 -5 0 -16 20 -26 46 -16 43 -46 75 -69 73 -5 0 -26 -5 -45
-11z m310 -69 c0 -26 -2 -27 -36 -19 -31 7 -35 6 -29 -8 3 -10 18 -47 32 -84
l26 -68 65 0 c114 0 152 -43 152 -172 0 -80 -21 -131 -59 -143 -12 -3 -21 -9
-21 -13 0 -19 43 -74 65 -84 16 -7 25 -19 25 -35 0 -22 -4 -23 -65 -23 -59 0
-67 2 -74 23 -6 15 -4 27 5 37 7 9 11 26 7 38 -5 21 -11 22 -99 22 l-94 0 0
29 c0 20 6 30 20 34 18 5 20 14 20 117 0 103 -2 112 -20 117 -26 7 -27 50 -2
55 17 3 18 5 4 38 -8 19 -16 31 -18 25 -2 -5 -13 -43 -24 -82 -21 -71 -23 -73
-55 -73 -32 0 -33 1 -55 80 -20 72 -40 104 -40 65 0 -23 -22 -65 -34 -65 -6 0
-17 4 -25 9 -12 7 -9 21 14 77 15 38 30 75 33 83 4 10 -1 12 -16 7 -12 -3 -31
-9 -42 -12 -16 -4 -20 -1 -20 20 0 21 7 27 56 41 31 9 57 15 58 13 1 -2 18
-54 36 -117 38 -127 33 -129 80 25 l31 102 49 -16 c44 -14 50 -19 50 -43z
m-300 -202 c27 -13 46 -63 37 -99 -4 -14 -18 -31 -32 -38 l-26 -14 26 -14 c51
-26 59 -90 16 -133 -26 -26 -36 -29 -90 -29 -52 0 -61 -3 -66 -21 -4 -12 -1
-27 8 -37 10 -12 12 -24 6 -39 -7 -21 -15 -23 -74 -23 -62 0 -65 1 -65 24 0
16 7 27 20 31 11 3 29 19 40 36 l21 29 -40 0 c-36 0 -41 2 -38 23 1 12 10 28
20 35 14 11 17 29 17 107 0 99 -5 125 -24 125 -7 0 -11 12 -10 28 1 15 3 27 3
27 101 0 232 -10 251 -18z m196 -117 c1 -14 -6 -24 -17 -27 -11 -3 -19 -9 -19
-14 -1 -5 -1 -47 -1 -94 0 -47 0 -94 1 -104 0 -11 9 -23 20 -26 13 -4 20 -15
20 -31 0 -23 -3 -24 -70 -24 -66 0 -70 1 -70 23 0 12 9 28 20 35 18 11 20 23
20 118 0 97 -2 106 -20 111 -14 4 -20 14 -20 32 0 26 1 26 67 25 63 -2 68 -4
69 -24z m-637 -168 c10 -53 14 -59 44 -67 48 -15 45 -38 -7 -71 -40 -25 -57
-44 -41 -44 2 0 82 -24 177 -54 209 -66 301 -92 349 -100 97 -17 358 50 584
149 l50 21 -43 29 c-50 33 -51 56 -5 69 24 8 34 17 38 38 17 93 15 88 49 88
55 0 67 -17 77 -106 13 -131 14 -129 -34 -166 l-44 -33 18 -40 c25 -57 24 -60
-26 -63 -29 -1 -126 -32 -269 -87 -122 -47 -248 -91 -279 -97 -77 -16 -127 -5
-419 93 -131 43 -251 79 -268 79 -16 0 -30 2 -30 3 0 2 9 29 19 59 l19 56 -44
32 c-49 35 -48 33 -35 162 5 43 14 85 21 93 7 8 29 15 50 15 l37 0 12 -58z"/>
<path d="M1303 1538 c55 -140 81 -204 83 -207 2 -2 10 2 19 9 11 9 15 33 15
91 0 66 -3 82 -20 99 -23 23 -106 30 -97 8z"/>
<path d="M1271 1393 l-1 -83 34 0 35 0 -28 68 c-15 37 -30 74 -34 82 -3 8 -6
-22 -6 -67z"/>
<path d="M810 1500 l0 -50 34 0 c30 0 35 4 50 43 9 23 16 46 16 50 0 4 -22 7
-50 7 l-50 0 0 -50z"/>
<path d="M946 1522 c3 -11 0 -30 -6 -42 -10 -18 -9 -21 2 -18 16 6 23 57 9 71
-7 7 -8 3 -5 -11z"/>
<path d="M810 1348 c0 -57 8 -55 33 10 l17 42 -25 0 c-23 0 -25 -3 -25 -52z"/>
<path d="M893 1349 l-21 -49 27 0 c55 0 78 65 32 89 -15 8 -21 2 -38 -40z"/>
<path d="M456 1324 c-19 -19 -21 -48 -3 -61 6 -6 27 -13 46 -17 l34 -6 -7 37
c-3 21 -6 44 -6 51 0 17 -46 15 -64 -4z"/>
<path d="M1710 1328 c0 -7 -3 -30 -7 -52 l-6 -38 34 7 c19 4 40 12 47 17 17
14 15 43 -4 62 -18 19 -64 21 -64 4z"/>
<path d="M428 1190 l-3 -71 37 -30 37 -29 9 32 c5 22 23 44 55 68 25 19 43 38
39 42 -4 3 -38 14 -76 23 -38 8 -75 20 -82 26 -10 8 -13 -6 -16 -61z m94 8
c15 -12 14 -16 -12 -47 -35 -42 -60 -37 -60 12 0 19 3 37 7 40 11 11 48 8 65
-5z"/>
<path d="M1708 1226 c-42 -11 -80 -24 -83 -27 -3 -3 13 -18 35 -33 25 -17 48
-42 58 -66 l17 -39 36 32 c35 31 35 33 31 95 -2 34 -7 61 -10 61 -4 -1 -42
-11 -84 -23z m66 -32 c10 -26 7 -51 -8 -64 -12 -9 -21 -5 -45 22 -27 30 -29
34 -14 46 23 17 60 15 67 -4z"/>
<path d="M710 1005 c-7 -8 -10 -15 -6 -15 4 0 -1 -14 -9 -31 -9 -17 -14 -33
-11 -36 2 -3 12 9 21 26 17 33 22 36 45 21 13 -8 13 -10 -1 -10 -9 0 -19 -6
-22 -14 -6 -15 11 -36 27 -36 6 0 3 7 -7 14 -11 8 -14 17 -8 20 13 9 29 -22
25 -48 -3 -12 4 -5 13 15 15 30 21 35 38 28 13 -5 15 -8 5 -8 -13 -1 -13 -2 0
-11 9 -5 19 -5 27 2 9 7 13 7 13 0 0 -25 -14 -42 -34 -41 -20 0 -20 1 -2 8 17
7 18 8 3 14 -18 7 -34 -10 -21 -23 5 -4 19 -11 31 -14 18 -6 22 -2 28 24 6 26
10 29 33 24 53 -11 55 -13 42 -29 -16 -19 -34 -19 -27 -1 4 10 1 13 -8 10 -21
-9 -5 -36 17 -31 14 4 18 1 14 -8 -3 -8 -1 -17 4 -20 6 -4 10 3 10 14 0 27 10
51 22 51 6 0 8 -14 3 -37 -4 -24 -3 -34 3 -28 5 6 12 25 15 43 6 29 4 32 -18
32 -31 0 -219 60 -211 67 9 9 -13 43 -28 43 -8 0 -19 -7 -26 -15z"/>
<path d="M1439 1001 c22 -6 19 -9 -35 -33 -76 -33 -116 -46 -201 -63 -54 -10
-61 -14 -33 -15 31 -2 32 -3 11 -9 -31 -8 -35 -22 -16 -46 15 -19 15 -19 9 8
-5 20 -2 27 9 27 9 0 17 -11 20 -27 3 -19 4 -14 6 15 1 30 5 42 14 39 6 -2 13
-10 13 -18 1 -8 2 -18 3 -23 0 -5 8 -3 16 4 13 11 18 10 30 -6 17 -22 19 -7 5
30 -11 31 -3 37 30 20 19 -10 20 -14 8 -14 -26 0 -22 -13 7 -27 14 -6 25 -7
25 -2 0 5 -5 9 -10 9 -6 0 -8 11 -4 25 5 20 3 24 -10 19 -10 -4 -16 -1 -16 7
0 7 3 10 6 6 4 -3 20 1 36 9 33 17 53 9 25 -10 -9 -7 -17 -17 -17 -22 0 -4 5
-3 12 4 17 17 26 15 33 -9 4 -13 12 -18 21 -15 9 3 12 1 9 -4 -3 -6 -16 -10
-27 -10 -12 0 -19 -3 -15 -6 11 -11 59 6 54 19 -2 7 -9 11 -15 10 -5 -1 -15
11 -22 28 -11 26 -10 32 6 44 28 21 43 18 56 -10 6 -14 15 -25 20 -25 10 0
-21 61 -37 72 -5 4 -19 7 -30 7 -16 -1 -16 -2 4 -8z"/>
<path d="M1443 954 c-6 -17 25 -49 36 -38 3 3 -2 10 -12 16 -14 8 -16 13 -6
24 8 10 9 14 0 14 -6 0 -14 -7 -18 -16z"/>
<path d="M1024 885 c3 -8 9 -23 13 -32 5 -12 2 -15 -10 -10 -9 3 -17 2 -17 -3
0 -6 9 -10 20 -10 23 0 27 29 8 48 -9 9 -7 12 11 12 17 0 22 -5 19 -22 -2 -19
1 -22 20 -20 19 3 22 -1 22 -27 0 -23 4 -31 18 -30 9 0 13 2 7 5 -5 2 -9 26
-8 54 l2 50 -56 0 c-45 0 -54 -3 -49 -15z"/>
<path d="M613 635 c-14 -10 -17 -30 -17 -110 -1 -65 3 -100 11 -107 8 -6 63
-9 135 -8 68 2 133 2 146 2 12 -1 28 -1 35 -2 98 -5 145 19 120 60 -10 15 -10
25 -1 44 14 32 -5 58 -38 54 -14 -2 -34 8 -53 26 l-31 30 -23 -22 c-16 -15
-36 -22 -65 -22 -36 0 -44 4 -52 24 -5 13 -14 27 -20 31 -22 13 -129 13 -147
0z m141 -37 c13 -49 -1 -67 -19 -25 -7 15 -20 23 -42 25 -31 3 -33 1 -33 -27
0 -35 22 -42 39 -13 8 13 10 7 10 -28 0 -35 -2 -41 -10 -27 -18 30 -39 21 -39
-18 0 -32 3 -35 28 -35 33 0 44 8 59 40 11 24 12 24 12 -11 1 -34 -2 -37 -31
-42 -42 -7 -115 -3 -124 6 -4 4 0 7 9 7 14 0 17 12 17 75 0 60 -3 75 -15 75
-8 0 -15 5 -15 10 0 6 31 10 74 10 68 0 74 -2 80 -22z m176 -23 c0 -19 6 -25
23 -26 l22 -2 -22 -4 c-20 -4 -23 -11 -23 -49 0 -46 12 -57 29 -27 5 10 12 15
16 12 3 -3 -3 -17 -14 -30 -30 -37 -56 -16 -56 45 0 34 -4 46 -15 46 -12 1
-11 3 3 11 9 5 17 19 17 29 0 11 5 20 10 20 6 0 10 -11 10 -25z m-60 -44 c0
-23 -1 -23 -18 -8 -21 20 -56 23 -50 5 3 -7 17 -15 33 -20 26 -7 44 -23 45
-40 0 -18 -34 -37 -65 -36 -30 1 -35 5 -35 25 0 26 15 31 24 8 6 -16 56 -21
56 -6 0 5 -17 18 -37 28 -20 10 -38 23 -40 29 -6 20 26 43 57 41 24 -2 30 -7
30 -26z"/>
<path d="M1420 624 c-26 -11 -40 -13 -52 -5 -26 16 -85 13 -115 -6 -24 -16
-26 -16 -38 0 -16 22 -47 22 -75 -1 -19 -15 -21 -22 -11 -40 14 -26 14 -87 1
-112 -19 -36 10 -48 117 -48 54 0 104 5 111 11 9 7 24 6 51 -3 22 -7 52 -10
68 -6 32 8 43 8 100 0 36 -5 45 -2 68 21 23 23 26 32 21 68 -3 23 -6 56 -6 73
0 23 -7 36 -27 49 -25 17 -31 17 -70 3 -36 -13 -46 -13 -60 -2 -23 17 -40 17
-83 -2z m-220 -94 c0 -73 2 -80 20 -80 11 0 20 -4 20 -8 0 -5 -22 -8 -50 -8
-27 0 -50 3 -50 8 0 4 7 8 15 8 12 0 15 14 15 65 0 51 -3 65 -15 65 -8 0 -15
4 -15 9 0 8 10 12 53 20 4 0 7 -35 7 -79z m154 64 c10 -10 16 -33 16 -67 0
-57 -27 -97 -66 -97 -28 0 -51 27 -36 42 12 12 35 1 27 -13 -4 -5 3 -9 14 -9
11 0 23 5 27 12 12 19 6 121 -7 129 -22 13 -39 -3 -39 -37 0 -30 3 -34 26 -34
14 0 23 -4 19 -10 -9 -14 -48 -13 -63 2 -17 17 -15 64 4 82 8 9 26 16 39 16
13 0 31 -7 39 -16z m144 -11 c4 -28 -18 -31 -25 -3 -7 26 -18 25 -37 -2 -24
-33 -21 -51 5 -38 16 9 26 8 45 -5 30 -19 32 -57 4 -85 -54 -54 -118 20 -90
104 13 41 34 57 70 53 17 -1 26 -9 28 -24z m132 12 c6 -8 9 -19 5 -25 -10 -17
-25 -11 -25 10 0 35 -33 20 -49 -23 -12 -30 -9 -32 19 -15 15 10 23 9 39 -6
39 -36 16 -106 -35 -106 -59 0 -75 136 -20 172 18 13 53 9 66 -7z"/>
<path d="M1430 510 c-16 -30 -3 -62 23 -58 38 5 33 77 -5 78 -4 0 -12 -9 -18
-20z"/>
<path d="M1572 521 c-22 -13 -11 -65 14 -69 25 -4 39 31 23 60 -11 20 -18 22
-37 9z"/>
</g>
</svg>
